<svg width="75" height="22" viewBox="0 0 75 22" fill="none" xmlns="http://www.w3.org/2000/svg">
<path d="M40.9519 0.0116607C41.1751 0.0112179 41.3983 0.0107259 41.6215 0.0101878C42.0873 0.00934728 42.553 0.00936977 43.0187 0.00997143C43.4897 0.0104952 43.9607 0.00971732 44.4317 0.00764516C49.5155 -0.0145354 49.5155 -0.0145354 52.0005 0.386078C52.1648 0.412337 52.1648 0.412337 52.3324 0.439125C55.6752 0.983215 58.8363 2.05912 61.9475 3.3504C63.2086 3.86928 64.4294 4.3185 65.766 4.61146C66.0203 4.66854 66.2746 4.72584 66.5289 4.78338C66.6391 4.80769 66.7493 4.832 66.8628 4.85705C67.1303 4.9234 67.1303 4.9234 67.3613 5.03683C67.686 5.09495 68.0092 5.1462 68.3357 5.1928C68.4387 5.20781 68.5417 5.22282 68.6477 5.23828C69.3714 5.33729 70.094 5.40395 70.8225 5.45512C70.9124 5.46167 71.0022 5.46822 71.0949 5.47496C71.5476 5.50782 72.0002 5.53795 72.4533 5.56384C72.623 5.57564 72.7926 5.58755 72.9623 5.59957C73.1126 5.60869 73.2628 5.61781 73.4177 5.62721C73.9527 5.74458 74.1458 5.89513 74.5219 6.2846C74.6305 6.56405 74.6305 6.56405 74.6613 6.85309C74.6742 6.95771 74.6871 7.06233 74.7003 7.17013C74.7105 7.27797 74.7207 7.3858 74.7312 7.49691C74.7558 7.71243 74.7806 7.92793 74.8057 8.14339C74.8152 8.23839 74.8247 8.33339 74.8345 8.43127C74.8564 8.6731 74.8564 8.6731 74.9839 8.89356C74.995 9.08133 74.999 9.26953 74.9992 9.45762C74.9994 9.56897 74.9995 9.68032 74.9997 9.79504C74.9992 9.91165 74.9988 10.0283 74.9983 10.1484C74.9988 10.2655 74.9992 10.3825 74.9997 10.5031C74.9995 10.6143 74.9994 10.7255 74.9992 10.8401C74.999 10.9939 74.999 10.9939 74.9988 11.1507C74.9839 11.3891 74.9839 11.3891 74.8684 11.5025C74.6935 11.5136 74.5181 11.5168 74.3429 11.5169C74.2292 11.5172 74.1155 11.5176 73.9983 11.5179C73.8724 11.5177 73.7465 11.5174 73.6168 11.5172C73.4849 11.5174 73.353 11.5176 73.2172 11.5178C72.777 11.5183 72.3368 11.518 71.8967 11.5176C71.5892 11.5177 71.2818 11.5178 70.9743 11.5179C70.3262 11.5181 69.6781 11.5178 69.03 11.5173C68.2901 11.5167 67.5502 11.5169 66.8103 11.5175C66.1702 11.518 65.5302 11.5181 64.8901 11.5178C64.5102 11.5176 64.1303 11.5176 63.7504 11.518C61.8622 11.5193 59.9789 11.4835 58.092 11.4158C57.2302 11.3852 56.3687 11.3682 55.5064 11.3595C55.2574 11.357 55.0084 11.354 54.7594 11.3509C54.0549 11.3421 53.3503 11.3342 52.6457 11.3264C52.2067 11.3216 51.7676 11.3162 51.3285 11.3106C51.0861 11.3076 50.8436 11.3053 50.6012 11.3029C49.88 11.2937 49.1719 11.2681 48.4554 11.1881C47.9901 11.1428 47.5245 11.14 47.0573 11.1343C46.8395 11.1306 46.6216 11.1268 46.4038 11.123C46.0698 11.1177 45.7358 11.1127 45.4017 11.1081C44.0679 11.0891 42.7421 11.0387 41.4116 10.942C40.1324 10.8491 38.8545 10.7824 37.5728 10.7333C37.4842 10.7299 37.3955 10.7265 37.3042 10.7229C36.5772 10.695 35.8501 10.6683 35.123 10.6417C32.9517 10.5624 30.7891 10.4657 28.624 10.2795C27.8706 10.2173 27.1157 10.1757 26.3609 10.1342C26.2773 10.1295 26.1938 10.1248 26.1077 10.12C24.7752 10.0456 23.4431 9.99801 22.1089 9.96533C20.9777 9.93732 19.8524 9.87619 18.7238 9.79393C14.9843 9.53521 11.2049 9.535 7.53531 10.3682C7.38591 10.3978 7.38591 10.3978 7.23349 10.428C6.65544 10.5435 6.11913 10.7195 5.57191 10.9354C5.43911 10.9846 5.30631 11.0339 5.16949 11.0847C3.82336 11.5888 2.72099 12.2424 1.59504 13.1291C1.49722 13.1913 1.39941 13.2534 1.29863 13.3174C1.18429 13.28 1.06995 13.2426 0.952148 13.204C0.993116 12.5471 1.17801 12.189 1.63789 11.7294C1.69524 11.6705 1.75259 11.6116 1.81167 11.551C2.76227 10.5995 3.88982 10.0178 5.10994 9.46072C5.2341 9.40399 5.35827 9.34725 5.48619 9.2888C6.02492 9.06507 6.5883 8.92663 7.15274 8.78012C7.25867 8.75205 7.36459 8.72397 7.47373 8.69505C7.80188 8.60856 8.13048 8.52396 8.45927 8.43982C8.57223 8.41043 8.68519 8.38104 8.80157 8.35076C9.60166 8.14721 10.3996 7.99347 11.2167 7.87266C11.3428 7.85368 11.4689 7.8347 11.5988 7.81514C12.7963 7.64138 13.9977 7.52164 15.2028 7.41339C15.3426 7.40074 15.4825 7.38809 15.6267 7.37506C15.7509 7.36428 15.8751 7.35351 16.0031 7.34241C16.324 7.31444 16.324 7.31444 16.6593 7.19206C16.8506 7.17029 17.0425 7.15331 17.2346 7.13933C17.3491 7.13064 17.4636 7.12195 17.5816 7.113C17.7036 7.10399 17.8257 7.09499 17.9514 7.08572C19.066 6.99831 20.1731 6.90145 21.2791 6.73833C21.4147 6.72049 21.5504 6.70265 21.6901 6.68427C22.8405 6.49534 23.6742 5.99868 24.6284 5.37713C24.8568 5.2326 25.0853 5.08841 25.3142 4.94467C25.4156 4.88077 25.517 4.81687 25.6214 4.75103C25.9299 4.56434 26.2432 4.40475 26.5697 4.25122C26.8874 4.09827 27.1975 3.93327 27.5086 3.7678C27.6366 3.69995 27.7646 3.63211 27.8966 3.5622C28.1196 3.44396 28.3426 3.32556 28.5654 3.20684C30.4437 2.20749 30.4437 2.20749 31.4426 1.86071C31.5708 1.81567 31.699 1.77063 31.831 1.72423C32.0983 1.63064 32.3658 1.5378 32.6336 1.44597C32.9645 1.32755 33.2862 1.2008 33.6108 1.06756C34.2101 0.83075 34.8116 0.677767 35.4416 0.542049C35.5421 0.518946 35.6426 0.495843 35.7461 0.472039C37.4801 0.0897617 39.1829 0.010172 40.9519 0.0116607ZM35.0229 2.08757C34.8298 2.14391 34.6367 2.20018 34.4436 2.25639C34.2444 2.31561 34.0453 2.37513 33.8463 2.43496C33.7072 2.47669 33.7072 2.47669 33.5653 2.51926C33.0832 2.66963 32.679 2.8381 32.2511 3.10847C32.0088 3.22574 31.7657 3.3414 31.522 3.45586C28.4542 4.89118 28.4542 4.89118 26.1299 7.07863C28.1844 7.09363 30.2337 7.06097 32.2869 6.98793C32.7312 6.97215 33.1755 6.9572 33.6198 6.94237C33.9098 6.93245 34.1997 6.92248 34.4897 6.91247C34.6188 6.90809 34.7479 6.90371 34.881 6.8992C35.5952 6.87355 36.308 6.83822 37.0212 6.7948C37.9172 6.74082 38.8125 6.70961 39.7098 6.68779C39.973 6.68138 40.2362 6.67456 40.4994 6.66765C41.0584 6.65306 41.6173 6.63894 42.1763 6.6249C42.8254 6.60857 43.4745 6.59203 44.1235 6.57502C44.3784 6.56843 44.6334 6.5622 44.8883 6.55599C45.8259 6.53212 46.7615 6.49332 47.6977 6.43794C48.4873 6.39155 49.2768 6.37162 50.0675 6.35409C50.866 6.33546 51.6643 6.30977 52.4625 6.2846C52.5578 6.28167 52.6532 6.27874 52.7514 6.27573C53.3283 6.2577 53.905 6.23646 54.4817 6.21107C54.6646 6.20342 54.8477 6.19672 55.0307 6.191C55.2862 6.18282 55.5412 6.17121 55.7965 6.15876C55.9419 6.15294 56.0874 6.14713 56.2372 6.14114C56.7177 6.03651 56.895 5.86534 57.1978 5.49056C57.3049 5.09778 57.334 4.81269 57.2627 4.41295C56.3506 2.9796 54.249 2.39136 52.6678 2.0287C47.3336 0.85205 40.2746 0.48284 35.0229 2.08757Z" fill="#C6C7C8" fill-opacity="0.7"/>
<path d="M43.931 14.6999C44.0025 14.7677 44.0739 14.8356 44.1476 14.9055C44.1476 14.9803 44.1476 15.0552 44.1476 15.1323C44.2238 15.1323 44.3 15.1323 44.3786 15.1323C44.4919 15.352 44.605 15.5718 44.7178 15.7917C44.7808 15.914 44.8438 16.0364 44.9087 16.1625C45.378 17.1163 45.3425 18.4472 45.0066 19.4499C44.5364 20.5176 43.7312 21.1954 42.6475 21.6197C40.9607 22.1681 39.1705 22.1552 37.5644 21.3711C36.6406 20.7807 36.0929 19.9998 35.7165 18.989C35.4515 17.71 35.6481 16.5858 36.2723 15.423C38.1821 13.2257 41.5876 13.0887 43.931 14.6999ZM38.2574 16.0752C37.6946 16.818 37.728 17.6472 37.7954 18.5353C37.8718 19.0007 37.9838 19.3137 38.3584 19.6196C39.2943 20.216 40.2909 20.2198 41.3757 20.1234C41.9303 19.992 42.29 19.7895 42.6967 19.4002C43.16 18.6357 43.2203 17.8728 43.0544 17.0075C42.8769 16.3885 42.6394 16.0485 42.0687 15.6995C40.8563 15.2683 39.3071 15.2805 38.2574 16.0752Z" fill="#C6C7C8" fill-opacity="0.7"/>
<path d="M19.0855 13.8847C19.8952 13.8761 20.7049 13.8702 21.5147 13.8661C21.79 13.8643 22.0654 13.862 22.3407 13.8591C22.7369 13.8549 23.1331 13.853 23.5293 13.8515C23.7134 13.8489 23.7134 13.8489 23.9012 13.8462C24.7877 13.846 25.3974 14.0141 26.0779 14.6083C26.7366 15.3281 26.9146 16.105 26.8714 17.0551C26.7577 17.8782 26.3856 18.3502 25.7363 18.8612C25.5532 18.9892 25.5532 18.9892 25.3222 19.1027C25.4916 19.459 25.6958 19.7684 25.9285 20.0881C26.3144 20.6228 26.6867 21.165 27.0546 21.7116C24.8836 21.8778 24.8836 21.8778 24.3423 21.5242C24.1702 21.2541 24.0565 20.9864 23.9363 20.6907C23.7916 20.482 23.6423 20.2764 23.4887 20.0739C23.1278 19.5837 23.1278 19.5837 23.1278 19.3295C22.2893 19.3295 21.4508 19.3295 20.5869 19.3295C20.5869 20.1156 20.5869 20.9017 20.5869 21.7116C19.9009 21.7116 19.2149 21.7116 18.508 21.7116C18.5052 21.0211 18.5031 20.3306 18.5017 19.6401C18.5011 19.4051 18.5003 19.1701 18.4993 18.9351C18.4979 18.5978 18.4973 18.2605 18.4968 17.9231C18.4962 17.8176 18.4956 17.7121 18.4949 17.6034C18.4949 17.5057 18.4949 17.4081 18.4949 17.3075C18.4947 17.2214 18.4944 17.1352 18.4941 17.0465C18.508 16.834 18.508 16.834 18.6235 16.6071C18.932 16.5131 19.2339 16.4323 19.5475 16.359C19.6341 16.3374 19.7208 16.3159 19.81 16.2936C20.0291 16.241 20.2502 16.1965 20.4714 16.1534C20.5869 16.2668 20.5869 16.2668 20.5982 16.5509C20.5969 16.6654 20.5955 16.7798 20.5941 16.8978C20.5931 17.0126 20.5921 17.1274 20.591 17.2456C20.5896 17.3344 20.5883 17.4232 20.5869 17.5146C21.107 17.5124 21.6269 17.5065 22.1469 17.4973C22.3238 17.4947 22.5007 17.493 22.6776 17.4924C22.932 17.4914 23.1861 17.4867 23.4404 17.4814C23.5195 17.4818 23.5985 17.4823 23.68 17.4827C23.9318 17.4813 23.9318 17.4813 24.2827 17.4012C24.5119 17.122 24.6181 16.9445 24.654 16.5881C24.6211 16.3229 24.6211 16.3229 24.5137 15.9265C24.1823 15.7013 23.8977 15.6698 23.501 15.6635C23.3924 15.6613 23.2837 15.659 23.1718 15.6567C23.0554 15.6554 22.9391 15.6541 22.8192 15.6527C22.6395 15.6494 22.6395 15.6494 22.4561 15.646C22.0737 15.6393 21.6912 15.634 21.3088 15.6288C21.0493 15.6244 20.7899 15.62 20.5305 15.6155C19.8949 15.6046 19.2592 15.5949 18.6235 15.5862C18.6891 14.9675 18.8483 14.4621 19.0855 13.8847Z" fill="#C6C7C8" fill-opacity="0.7"/>
<path d="M46.5723 13.8847C47.3778 13.8731 48.1833 13.8652 48.9888 13.8597C49.2626 13.8575 49.5363 13.8544 49.8101 13.8504C50.2046 13.8449 50.599 13.8423 50.9936 13.8403C51.1151 13.838 51.2367 13.8357 51.3619 13.8333C52.2381 13.833 52.8641 13.9882 53.5299 14.5613C53.5922 14.6351 53.6544 14.709 53.7185 14.785C53.7825 14.8586 53.8466 14.9321 53.9125 15.0079C54.4466 15.7692 54.3877 16.6282 54.3104 17.5145C54.1196 18.1822 53.5712 18.5741 53.04 18.9891C52.9638 19.064 52.8875 19.1389 52.809 19.216C52.8857 19.3214 52.9624 19.4269 53.0414 19.5355C53.6549 20.3791 53.6549 20.3791 53.808 20.5901C53.9152 20.7371 54.0229 20.8837 54.1312 21.03C54.5414 21.5862 54.5414 21.5862 54.5414 21.7115C52.6224 21.9816 52.6224 21.9816 52.003 21.5537C51.487 21.0232 51.0934 20.364 50.8366 19.6768C50.556 19.381 50.4287 19.3953 50.025 19.3627C49.7909 19.3559 49.5567 19.352 49.3225 19.3507C49.2029 19.3479 49.0833 19.345 48.96 19.3421C48.6647 19.3354 48.3692 19.3321 48.0738 19.3294C48.0738 20.1155 48.0738 20.9016 48.0738 21.7115C47.4258 21.7115 46.7779 21.7115 46.1104 21.7115C46.1104 20.0645 46.1104 18.4174 46.1104 16.7205C46.7529 16.4838 47.3004 16.2893 47.9583 16.1533C48.2861 16.4753 48.0738 17.0592 48.0738 17.5145C49.3696 17.4771 50.6654 17.4396 52.0006 17.4011C52.1402 16.9897 52.2069 16.5798 52.116 16.1533C51.9653 15.8918 51.9653 15.8918 51.6541 15.6996C51.2359 15.6277 50.82 15.631 50.3963 15.6305C50.2739 15.6286 50.1515 15.6267 50.0254 15.6248C49.6347 15.6193 49.2441 15.6169 48.8533 15.6145C48.5884 15.6113 48.3234 15.6079 48.0584 15.6043C47.4091 15.5959 46.7597 15.5901 46.1104 15.5862C46.2337 15.0061 46.368 14.4436 46.5723 13.8847Z" fill="#C6C7C8" fill-opacity="0.7"/>
<path d="M69.1803 13.8716C69.2913 13.8716 69.4023 13.8716 69.5166 13.8716C69.6361 13.8722 69.7555 13.8728 69.8786 13.8734C70.0625 13.8736 70.0625 13.8736 70.25 13.8739C70.6419 13.8745 71.0337 13.8759 71.4256 13.8774C71.6911 13.8779 71.9566 13.8785 72.2221 13.8789C72.8734 13.8802 73.5246 13.8821 74.1758 13.8845C74.2343 14.0828 74.2919 14.2813 74.3491 14.48C74.3812 14.5905 74.4134 14.7011 74.4465 14.815C74.5223 15.1322 74.5223 15.1322 74.5223 15.586C74.372 15.5876 74.2217 15.5893 74.0668 15.591C73.5076 15.5976 72.9484 15.6063 72.3892 15.6157C72.1475 15.6195 71.9057 15.6227 71.664 15.6253C71.3159 15.6291 70.9679 15.635 70.6199 15.6414C70.4585 15.6424 70.4585 15.6424 70.2939 15.6435C69.6951 15.6568 69.2636 15.7079 68.7476 16.0397C68.1995 16.7637 68.2267 17.551 68.2856 18.4218C68.3802 18.9986 68.4758 19.3197 68.9497 19.6926C69.5966 20.029 70.3362 19.9734 71.0503 19.9815C71.1953 19.9849 71.3404 19.9882 71.4899 19.9917C71.8462 19.9997 72.2026 20.005 72.5589 20.0099C72.5589 19.4484 72.5589 18.8869 72.5589 18.3084C73.8713 17.7412 73.8713 17.7412 74.6378 17.7412C74.6378 19.0513 74.6378 20.3615 74.6378 21.7113C73.8036 21.7218 72.9696 21.7308 72.1353 21.7363C71.8519 21.7385 71.5685 21.7416 71.2851 21.7456C70.8763 21.7511 70.4675 21.7537 70.0586 21.7557C69.8705 21.7592 69.8705 21.7592 69.6786 21.7628C68.7788 21.763 67.9321 21.6487 67.2331 21.0478C66.3932 20.1873 65.9862 19.047 65.9717 17.8644C66.0404 16.5894 66.4334 15.4805 67.3617 14.5651C67.9361 14.1316 68.4461 13.8697 69.1803 13.8716Z" fill="#C6C7C8" fill-opacity="0.7"/>
<path d="M59.855 13.6577C59.8931 14.631 59.9312 15.6042 59.9705 16.607C60.2516 16.3473 60.5327 16.0876 60.8223 15.82C60.995 15.664 61.1678 15.508 61.3406 15.3521C61.6191 15.0979 61.8618 14.854 62.1049 14.5652C62.4586 14.1585 62.7249 13.9176 63.2806 13.8437C64.0656 13.7987 64.8461 13.8283 65.6297 13.8846C65.6297 14.1114 65.6297 14.1114 65.4763 14.2634C65.3664 14.3531 65.3664 14.3531 65.2544 14.4447C64.837 14.793 64.4297 15.1504 64.0272 15.5152C63.5849 15.9153 63.1401 16.3125 62.6918 16.7062C62.3116 17.0411 61.9425 17.3809 61.5874 17.7413C62.1195 18.2871 62.6608 18.8004 63.2621 19.2726C63.7725 19.674 64.2332 20.1001 64.6886 20.5603C65.0089 20.8749 65.3488 21.1627 65.6951 21.4491C65.7498 21.4983 65.8044 21.5474 65.8607 21.598C65.8607 21.6355 65.8607 21.6729 65.8607 21.7115C65.3988 21.7347 64.9371 21.7487 64.4748 21.7611C64.3448 21.7677 64.2148 21.7744 64.0809 21.7812C63.4097 21.7947 62.9664 21.7833 62.4464 21.3397C62.3109 21.2019 62.1781 21.0614 62.0494 20.9174C61.9636 20.8355 61.8779 20.7537 61.7895 20.6693C61.7228 20.6014 61.6561 20.5336 61.5874 20.4637C61.0485 19.927 60.4948 19.408 59.855 18.9891C59.855 19.8875 59.855 20.7858 59.855 21.7115C59.2071 21.7115 58.5592 21.7115 57.8916 21.7115C57.8916 19.2409 57.8916 16.7703 57.8916 14.2249C59.239 13.6577 59.239 13.6577 59.855 13.6577Z" fill="#C6C7C8" fill-opacity="0.7"/>
<path d="M14.3502 13.7713C14.4911 13.9923 14.4911 13.9923 14.6303 14.2871C14.6834 14.3978 14.7366 14.5085 14.7913 14.6225C14.8482 14.744 14.9051 14.8655 14.9637 14.9907C15.0875 15.25 15.2115 15.5092 15.3355 15.7684C15.3677 15.8362 15.4 15.904 15.4332 15.9739C15.6705 16.4726 15.913 16.9687 16.1584 17.4636C16.2109 17.5697 16.2109 17.5697 16.2645 17.6779C16.335 17.8199 16.4054 17.962 16.4758 18.1041C17.0657 19.2951 17.6404 20.4899 18.1615 21.7116C17.8266 21.7362 17.4935 21.7541 17.1581 21.7683C17.0166 21.7797 17.0166 21.7797 16.8723 21.7914C16.5832 21.8006 16.3586 21.7989 16.0826 21.7116C15.9507 21.5096 15.9507 21.5096 15.8408 21.2614C15.721 21.0024 15.721 21.0024 15.5051 20.8042C14.8992 20.6678 14.2965 20.6822 13.6789 20.6907C13.509 20.6898 13.3391 20.6885 13.1693 20.6867C12.7544 20.6834 12.3397 20.6856 11.9248 20.6907C12.0437 20.0505 12.3121 19.5666 12.6177 18.9892C13.3038 18.9892 13.9898 18.9892 14.6966 18.9892C14.2393 18.0534 13.7819 17.1176 13.3107 16.1534C12.6635 17.4077 12.0506 18.6714 11.4628 19.9534C11.3836 20.1255 11.3043 20.2976 11.2251 20.4696C11.0344 20.8834 10.8444 21.2975 10.6543 21.7116C9.9302 21.7116 9.20605 21.7116 8.45996 21.7116C8.75537 21.0986 9.05091 20.4856 9.34675 19.8728C9.44694 19.6651 9.54706 19.4575 9.6471 19.2498C10.8315 16.7912 10.8315 16.7912 11.3739 15.7608C11.5807 15.3691 11.5807 15.3691 11.7285 14.9863C11.9673 14.436 12.1166 14.1788 12.6872 13.9308C13.8035 13.5923 13.8035 13.5923 14.3502 13.7713Z" fill="#C6C7C8" fill-opacity="0.7"/>
<path d="M3.96244 13.8513C4.0946 13.8518 4.22676 13.8523 4.36292 13.8528C4.78301 13.8547 5.20304 13.8589 5.62312 13.8633C5.90877 13.865 6.19442 13.8665 6.48008 13.8679C7.17855 13.8717 7.87699 13.8774 8.57544 13.8845C8.51808 14.5267 8.39698 15.0049 8.11346 15.586C7.90898 15.5885 7.90898 15.5885 7.70038 15.591C7.1928 15.5976 6.68528 15.6064 6.17775 15.6158C5.95843 15.6196 5.73909 15.6227 5.51975 15.6253C5.20376 15.6291 4.88788 15.6351 4.57194 15.6414C4.47447 15.6421 4.37699 15.6429 4.27656 15.6436C3.70197 15.6576 3.29917 15.7288 2.80073 16.0398C2.32053 16.6949 2.15732 17.5239 2.27424 18.3115C2.43129 19.0406 2.43129 19.0406 2.8657 19.6342C3.2436 19.834 3.45387 19.9116 3.88151 19.9198C3.98555 19.922 4.08958 19.9243 4.19677 19.9266C4.36551 19.9295 4.36551 19.9295 4.53765 19.9324C4.7102 19.9359 4.7102 19.9359 4.88623 19.9395C5.25457 19.947 5.62291 19.9536 5.99126 19.9603C6.24059 19.9652 6.48993 19.9701 6.73926 19.9751C7.35131 19.9873 7.96337 19.9988 8.57544 20.0099C8.51808 20.6521 8.39698 21.1303 8.11346 21.7114C7.35732 21.7201 6.6012 21.726 5.84503 21.7301C5.58805 21.7318 5.33109 21.7341 5.07413 21.7371C4.70371 21.7412 4.33333 21.7432 3.96289 21.7446C3.84892 21.7464 3.73496 21.7482 3.61754 21.75C2.81199 21.7502 2.16087 21.6529 1.48924 21.1793C0.539643 20.2267 0.0320289 19.1374 0 17.8051C0.0294706 16.636 0.343173 15.5825 1.14953 14.687C2.01639 13.9142 2.82991 13.8357 3.96244 13.8513Z" fill="#C6C7C8" fill-opacity="0.7"/>
<path d="M28.2813 13.8708C28.484 13.8712 28.484 13.8712 28.6909 13.8716C28.8024 13.8716 28.8024 13.8716 28.9162 13.8716C29.1631 13.8716 29.4099 13.8725 29.6567 13.8734C29.8275 13.8736 29.9982 13.8738 30.1689 13.8739C30.6191 13.8743 31.0693 13.8754 31.5195 13.8767C31.9786 13.8779 32.4376 13.8784 32.8967 13.879C33.798 13.8802 34.6993 13.8821 35.6006 13.8845C35.577 13.9693 35.5533 14.0541 35.5289 14.1415C35.4978 14.2532 35.4667 14.3649 35.4346 14.48C35.4038 14.5906 35.373 14.7011 35.3412 14.815C35.2709 15.0713 35.2042 15.3285 35.1386 15.586C33.4236 15.586 31.7085 15.586 29.9414 15.586C29.9414 16.0352 29.9414 16.4844 29.9414 16.9472C30.1557 16.9463 30.1557 16.9463 30.3743 16.9454C30.9022 16.9433 31.4302 16.942 31.9582 16.941C32.1871 16.9404 32.416 16.9396 32.6448 16.9386C32.9731 16.9373 33.3013 16.9366 33.6296 16.9361C33.7325 16.9355 33.8355 16.9349 33.9416 16.9343C34.1867 16.9343 34.4317 16.9401 34.6767 16.9472C34.7922 17.0606 34.7922 17.0606 34.8075 17.3903C34.8072 17.5248 34.8069 17.6593 34.8066 17.7979C34.807 17.9997 34.807 17.9997 34.8075 18.2056C34.7922 18.5352 34.7922 18.5352 34.6767 18.6487C34.3268 18.6587 33.9795 18.6617 33.6296 18.6598C33.5246 18.6596 33.4197 18.6594 33.3116 18.6593C32.975 18.6586 32.6384 18.6572 32.3018 18.6558C32.0742 18.6552 31.8466 18.6547 31.619 18.6542C31.0598 18.6531 30.5006 18.6508 29.9414 18.6487C29.9414 19.6594 29.9414 20.6701 29.9414 21.7114C29.2554 21.7114 28.5693 21.7114 27.8625 21.7114C27.8599 20.7076 27.8578 19.7039 27.8565 18.7001C27.8559 18.2341 27.8551 17.7681 27.8538 17.302C27.8526 16.8526 27.8519 16.4033 27.8516 15.9539C27.8513 15.7821 27.8509 15.6102 27.8503 15.4384C27.8495 15.1986 27.8494 14.9587 27.8494 14.7189C27.8492 14.5821 27.8489 14.4453 27.8486 14.3044C27.8671 13.8974 27.8679 13.8894 28.2813 13.8708Z" fill="#C6C7C8" fill-opacity="0.7"/>
<path d="M55.304 19.999C55.4759 19.9997 55.6478 20.0012 55.8197 20.003C56.1222 20.0054 56.4247 20.0077 56.7364 20.0101C56.7364 20.609 56.7364 21.208 56.7364 21.825C56.3148 21.8285 56.3148 21.8285 55.8846 21.8321C55.7521 21.8337 55.7521 21.8337 55.6169 21.8352C55.0297 21.8376 55.0297 21.8376 54.773 21.7116C54.7699 21.4493 54.7676 21.187 54.7658 20.9247C54.7644 20.7786 54.7631 20.6325 54.7617 20.482C54.7777 19.9739 54.7766 20.0131 55.304 19.999Z" fill="#C6C7C8" fill-opacity="0.7"/>
</svg>
